<mxfile host="app.diagrams.net" modified="2023-04-18T06:45:07.017Z" agent="Mozilla/5.0 (Windows NT 10.0; Win64; x64) AppleWebKit/537.36 (KHTML, like Gecko) Chrome/112.0.0.0 Safari/537.36" version="21.1.8" etag="JLFi5Bch5g6qOBVHTkFE" type="github">
  <diagram name="第 1 页" id="Zu895qKpGqfJF8_NdcSO">
    <mxGraphModel>
      <root>
        <mxCell id="0" />
        <mxCell id="1" parent="0" />
      </root>
    </mxGraphModel>
  </diagram>
</mxfile>
